<?xml version="1.0" encoding="UTF-8"?>
<svg id="Layer_1" data-name="Layer 1" xmlns="http://www.w3.org/2000/svg" width="30" height="30" viewBox="0 0 30 30">
  <defs>
    <style>
      .cls-1 {
        fill: #231f20;
        stroke: #fff;
        stroke-miterlimit: 10;
        stroke-width: .25px;
      }
    </style>
  </defs>
  <path class="cls-1" d="M15.02,7.5s1.55-3.22,2.46-1.03c0,0,3.49-.36,3.23,1.76,0,0-.45.49-1.1,0,0,0-1.34.91-1.74,1.88,0,0-.72.36-1.17,0,0,0,.01,1.46,1.17.61,0,0,.48-1.17,1.55-1.12,0,0,.53.27.63-.64,0,0,2.04.45,1.55,2.64,0,0-.39,1.55-2.04,2.55,0,0-.53-.64-.1-2.27,0,0-1.07,1.09-.63,2.27,0,0,.82,3.96-1.21,3.05,0,0-4.46-.18-.78-2.78,0,0,1.1-1.09-1.83-1.14,0,0-3.17-.23-1.62,1.36,0,0,4.03,2.82-1.79,2.23,0,0-1.12.45-.24-3.32,0,0,.29-1-.68-1.5,0,0,.49,1.68,0,1.96,0,0-4.56-1.73-1.36-4.91,0,0,1.02-.27,1.07.36,0,0-.1.64,1.41.64,0,0,.05,1.36,1.29,1,0,0,.17-1.09.56-.96,0,0-1.02.59-1.36-.32,0,0-1.79-2.27-2.38-1.5,0,0-1.65.86-.49-1.23,0,0,1.99-1.41,2.96-.5,0,0,.46-1.55,1.7-.59,0,0,.95-.05.94,1.5Z"/>
  <path class="cls-1" d="M14.93,19.65h-1.84l.31,1.68s-2.38-1.73-.92-2.55h.39s.78-1.77,2.06-1.64c0,0,1.82-.32,2.21,1.87l.49.22s.73.69-.53,1.78l-.1-1.41-2.06.05Z"/>
  <path class="cls-1" d="M15.27,5.69v-2.37s1.09-2.85,2.97-2.47c0,0-.86,1.15-.67,1.6,0,0,3.2-2.5,6.31,1.32,0,0-3.54-2.44-8.61,1.92Z"/>
  <path class="cls-1" d="M18.11,5.13s1.7-3.49,7.03.55c0,0-.85.54-3.52-.46,0,0-.65-1.14-3.52-.09Z"/>
  <path class="cls-1" d="M18.98,5.83s2.52-1.24,3.98.94c0,0,.87,1.77,1.65,2.14,0,0-2.62.18-3.35-1.46-.73-1.64-2.28-1.62-2.28-1.62Z"/>
  <path class="cls-1" d="M23.35,6.18s.19,1.91,2.86,3c0,0,2.13.68,2.72,1.59,0,0,1.26-2.14-5.58-4.6Z"/>
  <path class="cls-1" d="M21.79,8.92s.05,2.59,3.35,5.32c0,0,1.65,1.36,2.09,5.41,0,0,1.69-3-1.05-7.01,0,0,2.45.73,3.42,1.64,0,0,.19-4.04-7.81-5.37Z"/>
  <path class="cls-1" d="M24.61,21.33s2.33-.59,1.09-5.23c0,0-2.89-3.96-3.32-4.28,0,0-1.16,2.55,1.5,4.75,0,0,1.55.61.73,4.75Z"/>
  <path class="cls-1" d="M21.62,13.01s.22,2.97.95,4.12c0,0,1.02,2.66-1.65,4.57,0,0-.5-.19.49-3.64,0,0-2.04-2.5.22-5.05Z"/>
  <path class="cls-1" d="M23.88,18.24s1.15,3.37-1.12,4.69c-.63.36-1.99,1.87-1.99,2.64,0,0-.89-2.27,1.35-4.23,0,0,1.32-1.27,1.76-3.09Z"/>
  <path class="cls-1" d="M19.57,16.33s2.41.82.33,4.78c0,0-4.03,3.87-4.22,4.46s.27-3.32,2.53-5.1c0,0,1.52-.86,1.36-4.14Z"/>
  <path class="cls-1" d="M20.24,22.74s-1.07,2.05-1.07,3.41c0,0-.21,2.27-1.34,2.5,0,0,.91-2.5.66-3.69,0,0,.49-2.55,1.75-2.23Z"/>
  <path class="cls-1" d="M15.39,29.43s1.79-1.82,2.09-2.73c0,0,.63-3.28-1.26-.32l-.82,3.05Z"/>
  <path class="cls-1" d="M14.73,5.69v-2.37s-1.09-2.85-2.97-2.47c0,0,.86,1.15.67,1.6,0,0-3.2-2.5-6.31,1.32,0,0,3.54-2.44,8.61,1.92Z"/>
  <path class="cls-1" d="M11.89,5.13s-1.7-3.49-7.03.55c0,0,.85.54,3.52-.46,0,0,.65-1.14,3.52-.09Z"/>
  <path class="cls-1" d="M11.02,5.83s-2.52-1.24-3.98.94c0,0-.87,1.77-1.65,2.14,0,0,2.62.18,3.35-1.46s2.28-1.62,2.28-1.62Z"/>
  <path class="cls-1" d="M6.65,6.18s-.19,1.91-2.86,3c0,0-2.13.68-2.72,1.59,0,0-1.26-2.14,5.58-4.6Z"/>
  <path class="cls-1" d="M8.21,8.92s-.05,2.59-3.35,5.32c0,0-1.65,1.36-2.09,5.41,0,0-1.69-3,1.05-7.01,0,0-2.45.73-3.42,1.64,0,0-.19-4.04,7.81-5.37Z"/>
  <path class="cls-1" d="M5.39,21.33s-2.33-.59-1.09-5.23c0,0,2.89-3.96,3.32-4.28,0,0,1.16,2.55-1.5,4.75,0,0-1.55.61-.73,4.75Z"/>
  <path class="cls-1" d="M8.38,13.01s-.22,2.97-.95,4.12c0,0-1.02,2.66,1.65,4.57,0,0,.5-.19-.49-3.64,0,0,2.04-2.5-.22-5.05Z"/>
  <path class="cls-1" d="M6.12,18.24s-1.15,3.37,1.12,4.69c.63.36,1.99,1.87,1.99,2.64,0,0,.89-2.27-1.35-4.23,0,0-1.32-1.27-1.76-3.09Z"/>
  <path class="cls-1" d="M10.43,16.33s-2.41.82-.33,4.78c0,0,4.03,3.87,4.22,4.46s-.27-3.32-2.53-5.1c0,0-1.52-.86-1.36-4.14Z"/>
  <path class="cls-1" d="M9.76,22.74s1.07,2.05,1.07,3.41c0,0,.21,2.27,1.34,2.5,0,0-.91-2.5-.66-3.69,0,0-.49-2.55-1.75-2.23Z"/>
  <path class="cls-1" d="M14.61,29.43s-1.79-1.82-2.09-2.73c0,0-.63-3.28,1.26-.32l.82,3.05Z"/>
</svg>